<svg xmlns="http://www.w3.org/2000/svg" xmlns:xlink="http://www.w3.org/1999/xlink" fill="none" version="1.1" width="42" height="32" viewBox="0 0 42 32"><defs><clipPath id="master_svg0_5_144"><rect x="0" y="0" width="42" height="32" rx="0"/></clipPath></defs><g clip-path="url(#master_svg0_5_144)"><g><path d="M21.20000002384186,23.3L8.700000023841858,23.3L6.300000023841858,29L11.700000023841858,29L11.700000023841858,31L1.100000023841858,31L1.100000023841858,29L3.000000023841858,29L15.800000023841857,1L16.90000002384186,1L30.100000023841858,29L31.70000002384186,29L31.70000002384186,31L22.100000023841858,31L22.100000023841858,29L24.20000002384186,29L21.20000002384186,23.3ZM10.500000023841858,19.5L19.300000023841857,19.5L15.300000023841857,11.4L14.500000023841858,11.4L10.500000023841858,19.5Z" fill="#949494" fill-opacity="1"/></g><g><path d="M34,16L25.6,16L24,19.9L27.6,19.9L27.6,21.2L20.5,21.2L20.5,19.9L21.8,19.9L30.3,1L31.1,1L40,19.9L41,19.9L41,21.2L34.5,21.2L34.5,19.9L35.9,19.9L34,16ZM26.7,13.4L32.6,13.4L30,8L29.5,8L26.7,13.4Z" fill="#949494" fill-opacity="1"/></g></g></svg>