<svg xmlns="http://www.w3.org/2000/svg" xmlns:xlink="http://www.w3.org/1999/xlink" fill="none" version="1.1" width="24" height="24" viewBox="0 0 24 24"><defs><clipPath id="master_svg0_7_237"><rect x="0" y="0" width="24" height="24" rx="0"/></clipPath></defs><g clip-path="url(#master_svg0_7_237)"><g><path d="M7.7434899999999995,14.2671L6.91403,19.0972C6.82915,19.594900000000003,7.22652,20,7.6759699999999995,20C7.80126,20.0002,7.9246099999999995,19.969,8.03476,19.9093L12.37301,17.6293L16.7113,19.9093C16.8214,19.969,16.9448,20.0002,17.07,20C17.5195,20,17.9169,19.594900000000003,17.832,19.0972L17.002499999999998,14.2671L20.5113,10.84705C20.9704,10.39953,20.7177,9.622160000000001,20.085,9.52957L15.2337,8.82549L13.06551,4.431306C12.93577,4.16728,12.66719,4,12.37301,4C12.07883,3.999999852831,11.81025,4.16728,11.68051,4.431306L9.51235,8.82549L4.660996,9.52956C4.0282949,9.622160000000001,3.7756,10.39953,4.234694,10.84705L7.7434899999999995,14.2671ZM9.711030000000001,10.200849999999999L10.43439,10.094750000000001L10.75653,9.44083L12.37301,6.16738L13.98948,9.44083L14.3116,10.094750000000001L15.035,10.200849999999999L18.6479,10.72552L16.0323,13.27176L15.5095,13.78101L15.633,14.5024L16.2502,18.098L13.01921,16.4005L12.37301,16.0611L11.7268,16.4005L8.49578,18.098L9.113050000000001,14.5024L9.236509999999999,13.78101L8.71376,13.27176L6.0980799999999995,10.72553L9.711030000000001,10.200849999999999Z" fill="#999999" fill-opacity="1"/></g></g></svg>