<svg xmlns="http://www.w3.org/2000/svg" xmlns:xlink="http://www.w3.org/1999/xlink" fill="none" version="1.1" width="24" height="24" viewBox="0 0 24 24"><defs><clipPath id="master_svg0_5_423"><rect x="0" y="0" width="24" height="24" rx="0"/></clipPath></defs><g clip-path="url(#master_svg0_5_423)"><g><path d="M19.8,6.6C19.9,6.7,20,6.8,20,6.9C20,7,20,7.1,20,7.2L20,17.8C20,18.4,19.8,18.9,19.4,19.4C19,19.9,18.4,20,17.7,20L6.3,20C5.6,20,5,19.8,4.6,19.5C4.2,19.1,4,18.6,4,17.9L4,6.3C4,5.6,4.2,5,4.6,4.6C5,4.2,5.6,4,6.3,4L16.7,4C16.8,4,17,4,17.1,4C17.2,4,17.3,4.0999999,17.4,4.0999999L19.8,6.6ZM16.3,5.8C16.3,5.4,16.1,5.2,15.7,5.2L7.1,5.2C6.9,5.2,6.7,5.2,6.6,5.4C6.5,5.5,6.5,5.7,6.5,5.8L6.5,9C6.5,9.1,6.5,9.3,6.6,9.4C6.7,9.5,6.7,9.7,6.8,9.8C6.9,9.9,7,10,7.1,10.1C7.2,10.2,7.4,10.2,7.5,10.2L15,10.2C15.4,10.2,15.7,10.1,15.9,9.9C16.1,9.7,16.3,9.4,16.3,9Q16.3,8.9,16.3,5.8ZM16.3,14.7C16.3,14.1,16,13.8,15.4,13.8L7.3,13.8C7,13.8,6.8,13.9,6.6,14C6.5,14.2,6.4,14.4,6.4,14.6L6.4,17.5L16.3,17.5Q16.3,17.6,16.3,14.7Z" fill="#333333" fill-opacity="1"/></g></g></svg>