<svg xmlns="http://www.w3.org/2000/svg" xmlns:xlink="http://www.w3.org/1999/xlink" fill="none" version="1.1" width="16" height="16" viewBox="0 0 16 16"><defs><clipPath id="master_svg0_7_262"><rect x="0" y="0" width="16" height="16" rx="0"/></clipPath></defs><g clip-path="url(#master_svg0_7_262)"><g><path d="M4.220000000000001,1.001007080078125L1.42,1.001007080078125C1.188,1.001007080078125,1,1.189007080078125,1,1.421007080078125L1,4.213007080078125C1,4.215007080078125,1,4.217007080078125,1,4.219007080078125C1,4.4520070800781255,1.188,4.640007080078124,1.42,4.640007080078124C1.6520000000000001,4.640007080078124,1.842,4.4520070800781255,1.842,4.219007080078125C1.842,4.195007080078125,1.838,4.1700070800781255,1.834,4.147007080078125L1.834,1.909007080078125C1.834,1.870007080078125,1.865,1.839007080078125,1.903,1.839007080078125L4.175,1.839007080078125C4.1899999999999995,1.840007080078125,4.205,1.843007080078125,4.220000000000001,1.843007080078125C4.452,1.843007080078125,4.641,1.655007080078125,4.641,1.422007080078125C4.641,1.189007080078125,4.452,1.001007080078125,4.220000000000001,1.001007080078125Z" fill="#33353A" fill-opacity="1"/></g><g><path d="M13.242998046875,12.98100341796875C13.242998046875,13.13500341796875,13.115998046875,13.26000341796875,12.962998046875,13.26000341796875L2.976998046875,13.26000341796875C2.822998046875,13.26000341796875,2.697998046875,13.13500341796875,2.697998046875,12.98100341796875L2.697998046875,2.9960034179687502C2.697998046875,2.84100341796875,2.822998046875,2.71600341796875,2.976998046875,2.71600341796875L12.962998046875,2.71600341796875C13.115998046875,2.71600341796875,13.242998046875,2.84100341796875,13.242998046875,2.9960034179687502L13.242998046875,12.98100341796875Z" fill="#33353A" fill-opacity="1"/></g><g><path d="M11.77791015625,1.001007080078125L14.57791015625,1.001007080078125C14.80991015625,1.001007080078125,14.99791015625,1.189007080078125,14.99791015625,1.421007080078125L14.99791015625,4.213007080078125C14.99791015625,4.215007080078125,14.99991015625,4.217007080078125,14.99991015625,4.219007080078125C14.99991015625,4.4520070800781255,14.81091015625,4.640007080078124,14.57791015625,4.640007080078124C14.34491015625,4.640007080078124,14.15691015625,4.4520070800781255,14.15691015625,4.219007080078125C14.15691015625,4.195007080078125,14.16091015625,4.1700070800781255,14.163910156250001,4.147007080078125L14.163910156250001,1.909007080078125C14.163910156250001,1.870007080078125,14.13391015625,1.839007080078125,14.09391015625,1.839007080078125L11.82291015625,1.839007080078125C11.80691015625,1.840007080078125,11.79391015625,1.843007080078125,11.77791015625,1.843007080078125C11.54591015625,1.843007080078125,11.35791015625,1.655007080078125,11.35791015625,1.422007080078125C11.35791015625,1.189007080078125,11.54591015625,1.001007080078125,11.77791015625,1.001007080078125Z" fill="#33353A" fill-opacity="1"/></g><g><path d="M4.220000000000001,14.9990087890625L1.42,14.9990087890625C1.188,14.9990087890625,1,14.8120087890625,1,14.5800087890625L1,11.7870077890625C1,11.7850087890625,1,11.7830087890625,1,11.7810087890625C1,11.5480087890625,1.188,11.3590087890625,1.42,11.3590087890625C1.6520000000000001,11.3590087890625,1.842,11.5470087890625,1.842,11.7810087890625C1.842,11.8050087890625,1.838,11.8300087890625,1.834,11.8530077890625L1.834,14.0900087890625C1.834,14.1290087890625,1.865,14.1600087890625,1.903,14.1600087890625L4.175,14.1600087890625C4.1899999999999995,14.1590087890625,4.204000000000001,14.1560087890625,4.218999999999999,14.1560087890625C4.4510000000000005,14.1560087890625,4.640000000000001,14.3440087890625,4.640000000000001,14.5770087890625C4.640000000000001,14.8100087890625,4.452,14.9990087890625,4.220000000000001,14.9990087890625Z" fill="#33353A" fill-opacity="1"/></g><g><path d="M11.77791015625,14.9990087890625L14.57791015625,14.9990087890625C14.80991015625,14.9990087890625,14.99791015625,14.8110087890625,14.99791015625,14.5800087890625L14.99791015625,11.7870077890625C14.99791015625,11.7850087890625,14.99991015625,11.7830087890625,14.99991015625,11.7810087890625C14.99991015625,11.5480087890625,14.81091015625,11.3590087890625,14.57791015625,11.3590087890625C14.34491015625,11.3590087890625,14.15691015625,11.5470087890625,14.15691015625,11.7810087890625C14.15691015625,11.8050087890625,14.16091015625,11.8300087890625,14.163910156250001,11.8530077890625L14.163910156250001,14.0900087890625C14.163910156250001,14.1290087890625,14.13391015625,14.1600087890625,14.09391015625,14.1600087890625L11.82291015625,14.1600087890625C11.80691015625,14.1590087890625,11.79391015625,14.1560087890625,11.77791015625,14.1560087890625C11.54591015625,14.1560087890625,11.35791015625,14.3440087890625,11.35791015625,14.5770087890625C11.35791015625,14.8100087890625,11.54591015625,14.9990087890625,11.77791015625,14.9990087890625Z" fill="#33353A" fill-opacity="1"/></g></g></svg>