<svg xmlns="http://www.w3.org/2000/svg" xmlns:xlink="http://www.w3.org/1999/xlink" fill="none" version="1.1" width="32" height="32" viewBox="0 0 32 32"><defs><clipPath id="master_svg0_7_249"><rect x="0" y="0" width="32" height="32" rx="0"/></clipPath></defs><g clip-path="url(#master_svg0_7_249)"><g><path d="M4,6L28,6L28,32L4,32L4,6ZM8,10L8,28L24,28L24,10L8,10ZM10,14L14,14L14,24L10,24L10,14ZM18,14L22,14L22,24L18,24L18,14ZM2,6L30,6L30,10L2,10L2,6ZM10,0L22,0L22,4L10,4L10,0Z" fill="#33353A" fill-opacity="1"/></g></g></svg>