<svg xmlns="http://www.w3.org/2000/svg" xmlns:xlink="http://www.w3.org/1999/xlink" fill="none" version="1.1" width="24" height="24" viewBox="0 0 24 24"><defs><clipPath id="master_svg0_7_534"><rect x="0" y="0" width="24" height="24" rx="0"/></clipPath></defs><g clip-path="url(#master_svg0_7_534)"><g><g><path d="M18.100000190734864,4.5L5.900000190734863,4.5C4.700000190734864,4.5,3.8000001907348633,5.4,3.8000001907348633,6.6L3.8000001907348633,16.5C3.8000001907348633,16.6,3.8000001907348633,16.7,3.8000001907348633,16.8L3.8000001907348633,17.3C3.8000001907348633,18.5,4.700000190734864,19.4,5.900000190734863,19.4L18.000000190734863,19.4C19.200000190734862,19.4,20.100000190734864,18.5,20.100000190734864,17.3L20.100000190734864,6.6C20.200000190734862,5.4,19.200000190734862,4.5,18.100000190734864,4.5ZM5.900000190734863,5.8L18.000000190734863,5.8C18.500000190734863,5.8,18.800000190734863,6.2,18.800000190734863,6.6L18.800000190734863,14.6C18.300000190734863,14,17.700000190734862,13.3,17.200000190734862,12.7C16.800000190734863,12.4,16.400000190734865,12.2,15.900000190734863,12.3C15.100000190734864,12.4,14.300000190734863,13,13.300000190734863,14.2C13.100000190734864,14.5,12.900000190734863,14.8,12.700000190734864,15C11.900000190734863,13.8,10.200000190734864,11.7,8.800000190734863,10.7C8.400000190734863,10.4,7.900000190734863,10.3,7.400000190734863,10.5C6.900000190734863,10.7,6.400000190734863,11.1,5.900000190734863,11.8C5.600000190734863,12.2,5.300000190734863,12.7,5.0000001907348635,13.4L5.0000001907348635,6.6C5.100000190734863,6.1,5.5000001907348635,5.8,5.900000190734863,5.8Z" fill="#3C82FC" fill-opacity="1"/></g><g><path d="M14.699999809265137,8.900000095367432C14.699999809265137,9.700000095367432,15.299999809265136,10.300000095367432,16.099999809265135,10.300000095367432C16.899999809265136,10.300000095367432,17.499999809265137,9.700000095367432,17.499999809265137,8.900000095367432C17.499999809265137,8.100000095367431,16.999999809265137,7.400000095367432,16.199999809265137,7.400000095367432C15.400001809265136,7.400000095367432,14.699999809265137,8.100000095367431,14.699999809265137,8.900000095367432Z" fill="#3C82FC" fill-opacity="1"/></g></g></g></svg>