<svg xmlns="http://www.w3.org/2000/svg" xmlns:xlink="http://www.w3.org/1999/xlink" fill="none" version="1.1" width="24" height="24" viewBox="0 0 24 24"><defs><clipPath id="master_svg0_5_317"><rect x="0" y="0" width="24" height="24" rx="0"/></clipPath></defs><g clip-path="url(#master_svg0_5_317)"><g><path d="M15.8,3.9000001430511473L20.8,8.900000143051148C21.1,9.200000143051147,21.1,9.800000143051147,20.8,10.100000143051147L13.9,17.000000143051146L12,17.600000143051147L10.8,18.800000143051147C10.5,19.100000143051147,9.9,19.100000143051147,9.6,18.800000143051147L5.9,15.100000143051147C5.6,14.800000143051147,5.6,14.200000143051147,5.9,13.900000143051148L7,12.600000143051147L7.6,10.700000143051147L14.4,3.9000001430511473C14.9,3.5000001430511474,15.4,3.5000001430511474,15.8,3.9000001430511473ZM16.4,7.000000143051148L10.8,12.600000143051147L12,13.800000143051147L17.6,8.200000143051147L16.4,7.000000143051148ZM5.5,16.600000143051147L8,19.100000143051147L6.8,20.300000143051147L3,19.100000143051147L5.5,16.600000143051147Z" fill="#5F5F5F" fill-opacity="1"/></g></g></svg>