<svg xmlns="http://www.w3.org/2000/svg" xmlns:xlink="http://www.w3.org/1999/xlink" fill="none" version="1.1" width="16" height="16" viewBox="0 0 16 16"><defs><clipPath id="master_svg0_7_257"><rect x="0" y="0" width="16" height="16" rx="0"/></clipPath></defs><g clip-path="url(#master_svg0_7_257)"><g><path d="M6.55810546875,10.97719107421875L11.60669546875,10.97719107421875L11.60669546875,12.04282107421875L6.55810546875,12.04282107421875L6.55810546875,10.97719107421875ZM6.55810546875,8.56610107421875L9.908265468749999,8.56610107421875L9.908265468749999,9.63173107421875L6.55810546875,9.63173107421875L6.55810546875,8.56610107421875Z" fill="#FFFFFF" fill-opacity="1"/></g><g><path d="M12.05240458984375,3.97656L10.95689458984375,2.8240600000000002C10.94564458984375,2.81234,10.93407458984375,2.8015600000000003,10.92220458984375,2.79094L10.79892458984375,2.66172L10.62767458984375,2.66172C10.59001458984375,2.65766,10.55189458984375,2.65766,10.51407458984375,2.66172L9.43564458984375,2.66172L9.46814458984375,2.63062L7.91532458984375,1L2.5920445898437503,1C1.99454858984375,1.000468731,1.51032948484375,1.484844,1.50970458984375,2.0823400000000003L1.50970458984375,12.2559C1.51032960384375,12.8534,1.99454858984375,13.3377,2.5920445898437503,13.3383L4.39345458984375,13.3383L4.39345458984375,13.9177C4.39408458984375,14.5152,4.87829458984375,14.9994,5.4757945898437494,15L13.40810458984375,15C14.00560458984375,14.9994,14.48990458984375,14.5152,14.49050458984375,13.9177L14.49050458984375,6.53188L12.05240458984375,3.97656ZM11.04314458984375,4.46156L11.27001458984375,4.69953L12.64750458984375,6.1475L10.97736458984375,6.06578C10.97012458984375,6.06364,10.96554458984375,6.05653,10.96658458984375,6.04906L11.04314458984375,4.46156ZM4.39345458984375,3.74406L4.39345458984375,12.272L2.5920445898437503,12.272C2.58298458984375,12.2716,2.57595458984375,12.2644,2.57532458984375,12.2553L2.57532458984375,2.0823400000000003C2.57595458984375,2.0734399999999997,2.5831445898437497,2.06625,2.5920445898437503,2.06562L7.45861458984375,2.06562L8.02642458984375,2.66172L5.4757945898437494,2.66172C4.87829458984375,2.66234,4.39392458984375,3.14656,4.39345458984375,3.74406ZM13.42490458984375,13.9177C13.42420458984375,13.9266,13.41700458984375,13.9338,13.40810458984375,13.9344L13.40830458984375,13.9339L5.4757945898437494,13.9339C5.466894589843751,13.9333,5.45970458984375,13.9261,5.45908458984375,13.9172L5.45908458984375,3.74406C5.45970458984375,3.73516,5.466894589843751,3.72797,5.4757945898437494,3.72734L10.01157458984375,3.72734L9.90220458984375,5.99953L9.90220458984375,6.00172C9.87595458984375,6.59766,10.33704458984375,7.10391,10.92783458984375,7.13016L13.42470458984375,7.25156L13.42470458984375,13.9177L13.42490458984375,13.9177Z" fill="#FFFFFF" fill-opacity="1"/></g></g></svg>