<svg xmlns="http://www.w3.org/2000/svg" xmlns:xlink="http://www.w3.org/1999/xlink" fill="none" version="1.1" width="30" height="30" viewBox="0 0 30 30"><defs><clipPath id="master_svg0_5_127"><rect x="0" y="0" width="30" height="30" rx="0"/></clipPath></defs><g clip-path="url(#master_svg0_5_127)"><g><g><path d="M13.200000190734864,21.6C13.800000190734863,21.6,14.100000190734864,21.6,14.400000190734863,21.6C15.800000190734863,21.6,16.800000190734863,21.3,17.500000190734863,20.8C18.100000190734864,20.3,18.500000190734863,19.5,18.500000190734863,18.3C18.500000190734863,17.3,18.200000190734862,16.5,17.600000190734864,16C17.000000190734863,15.5,16.100000190734864,15.2,14.900000190734863,15.2C14.600000190734864,15.2,14.300000190734863,15.2,14.000000190734863,15.2C13.800000190734863,15.2,13.500000190734863,15.2,13.300000190734863,15.2L13.300000190734863,21.6L13.200000190734864,21.6ZM13.200000190734864,14.1C13.300000190734863,14.1,13.300000190734863,14.1,13.400000190734863,14.1C13.500000190734863,14.1,13.600000190734864,14.1,13.800000190734863,14.1C15.000000190734863,14.1,16.000000190734863,13.8,16.500000190734863,13.3C17.100000190734864,12.8,17.400000190734865,12,17.400000190734865,11C17.400000190734865,10.1,17.100000190734864,9.4,16.600000190734864,8.9C16.100000190734864,8.4,15.200000190734864,8.2,14.100000190734864,8.2C13.900000190734863,8.2,13.600000190734864,8.2,13.200000190734864,8.2L13.100000190734864,8.2L13.200000190734864,14.1ZM8.300000190734863,7L15.500000190734863,7C17.300000190734863,7,18.600000190734864,7.3,19.500000190734863,7.9C20.400000190734865,8.5,20.800000190734863,9.5,20.800000190734863,10.7C20.800000190734863,11.6,20.500000190734863,12.4,19.900000190734865,13.1C19.300000190734863,13.7,18.500000190734863,14.2,17.400000190734865,14.5C18.800000190734863,14.5,19.800000190734863,14.9,20.600000190734864,15.5C21.400000190734865,16.2,21.700000190734862,17.1,21.700000190734862,18.3C21.700000190734862,19.8,21.200000190734862,21,20.200000190734862,21.8C19.200000190734862,22.6,17.600000190734864,23,15.700000190734864,23L8.300000190734863,23L8.300000190734863,21.8L9.700000190734864,21.7L10.100000190734864,21.3L10.100000190734864,8.6L9.700000190734864,8.3L8.300000190734863,8.2L8.300000190734863,7Z" fill="#333333" fill-opacity="1"/></g></g></g></svg>