<svg xmlns="http://www.w3.org/2000/svg" xmlns:xlink="http://www.w3.org/1999/xlink" fill="none" version="1.1" width="30" height="30" viewBox="0 0 30 30"><defs><clipPath id="master_svg0_5_140"><rect x="0" y="0" width="30" height="30" rx="0"/></clipPath></defs><g clip-path="url(#master_svg0_5_140)"><g><path d="M7.5,21.8L22.3,21.8L22.3,23L7.5,23L7.5,21.8ZM7.5,7L13.9,7L13.9,8L12.5,8.1L12.2,8.4L12.2,15.3C12.2,16.6,12.5,17.6,13,18.1C13.6,18.7,14.5,19,15.8,19C17,19,17.8,18.7,18.4,18.1C19,17.5,19.2,16.5,19.2,15.1L19.2,8.4L18.9,8.1L17.4,8L17.4,7L22.4,7L22.4,8L21,8.1L20.7,8.4L20.7,15.3C20.7,17.1,20.2,18.5,19.3,19.3C18.4,20.1,16.9,20.5,14.8,20.5C13.7,20.5,12.8,20.4,12,20.1C11.2,19.8,10.6,19.4,10.1,18.9C9.7,18.5,9.5,18,9.3,17.5C9.2,17,9.1,16.2,9.1,15.2L9.1,8.3L8.9,8.1L7.5,8L7.5,7Z" fill="#333333" fill-opacity="1"/></g></g></svg>