<svg xmlns="http://www.w3.org/2000/svg" xmlns:xlink="http://www.w3.org/1999/xlink" fill="none" version="1.1" width="24" height="24" viewBox="0 0 24 24"><defs><clipPath id="master_svg0_5_409"><rect x="0" y="0" width="24" height="24" rx="0"/></clipPath></defs><g clip-path="url(#master_svg0_5_409)"><g><path d="M15.400000476837159,6.199999523162842C15.000000476837158,5.799999523162842,15.000000476837158,5.199999523162842,15.400000476837159,4.799999523162842C15.800000476837159,4.3999996231628415,16.400000476837157,4.3999996231628415,16.80000047683716,4.799999523162842L19.700000476837157,7.699999523162842C20.10000047683716,8.099999523162841,20.10000047683716,8.699999523162841,19.700000476837157,9.099999523162841L16.80000047683716,11.999999523162842C16.400000476837157,12.399999523162842,15.800000476837159,12.399999523162842,15.400000476837159,11.999999523162842C15.000000476837158,11.599999523162841,15.000000476837158,10.999999523162842,15.400000476837159,10.599999523162841L16.60000047683716,9.399999523162842L10.100000476837158,9.399999523162842C7.800000476837158,9.399999523162842,6.000000476837158,11.199999523162841,6.000000476837158,13.399999523162842C6.000000476837158,15.599999523162841,7.800000476837158,17.499999523162842,10.100000476837158,17.499999523162842L18.200000476837157,17.499999523162842C18.80000047683716,17.499999523162842,19.200000476837157,17.999999523162842,19.200000476837157,18.499999523162842C19.200000476837157,18.999999523162842,18.700000476837157,19.499999523162842,18.200000476837157,19.499999523162842L10.100000476837158,19.499999523162842C6.700000476837158,19.499999523162842,4.000000476837158,16.799999523162843,4.000000476837158,13.399999523162842C4.000000476837158,9.999999523162842,6.700000476837158,7.299999523162842,10.100000476837158,7.299999523162842L16.500000476837158,7.299999523162842L15.400000476837159,6.199999523162842Z" fill="#7b7b7b" fill-opacity="1"/></g></g></svg>