<svg xmlns="http://www.w3.org/2000/svg" xmlns:xlink="http://www.w3.org/1999/xlink" fill="none" version="1.1" width="24" height="24" viewBox="0 0 24 24"><defs><clipPath id="master_svg0_5_331"><rect x="0" y="0" width="24" height="24" rx="0"/></clipPath></defs><g clip-path="url(#master_svg0_5_331)"><g><path d="M18.999953897094727,12.6C18.499953897094727,12.1,17.699953897094726,12,17.199953897094726,12.6L15.699953897094726,14.1C15.299953897094726,14.5,14.799953897094726,14.5,14.600003897094727,14.2C14.400003897094727,14,14.500003897094727,13.3,14.500003897094727,12.9L15.199953897094726,6.8C15.299953897094726,6.3,14.899953897094727,5.7,14.300003897094726,5.7C13.800003897094726,5.6,13.300003897094726,6.1,13.200003897094726,6.6L12.400003897094727,11.4C12.400003897094727,11.5,12.300003897094726,11.5,12.300003897094726,11.4L12.000003897094727,5C12.000003897094727,4.4,11.600003897094727,4,11.000003897094727,4C10.400003897094727,4,10.000003897094727,4.4,10.000003897094727,5L10.000003897094727,11.3C10.000003897094727,11.4,9.900003897094727,11.4,9.900003897094727,11.3L9.000003897094727,6.4C8.900003897094727,5.9,8.400003897094727,5.5,7.800003897094727,5.6C7.300003897094727,5.7,6.900003897094726,6.2,7.000003897094727,6.8L7.800003897094727,12.6C7.800003897094727,12.7,7.800003897094727,12.8,7.700003897094726,12.6L6.600003897094727,9.4C6.400003897094726,8.9,5.800003897094727,8.6,5.299999897094726,8.7C4.799999897094726,8.9,4.499999897094726,9.5,4.700000297094727,10L6.800003897094727,16.8L6.800003897094727,16.9C7.400003897094726,18.7,9.100003897094727,19.9,11.000003897094727,19.9C12.300003897094726,19.9,13.500003897094727,19.5,14.500003897094727,18.7Q15.599953897094727,18.1,18.999953897094727,14.4C19.59995389709473,13.9,19.499953897094727,13.1,18.999953897094727,12.6Z" fill="#333333" fill-opacity="1"/></g></g></svg>