<svg xmlns="http://www.w3.org/2000/svg" xmlns:xlink="http://www.w3.org/1999/xlink" fill="none" version="1.1" width="24" height="24" viewBox="0 0 24 24"><defs><clipPath id="master_svg0_7_467"><rect x="0" y="0" width="24" height="24" rx="0"/></clipPath></defs><g clip-path="url(#master_svg0_7_467)"><g><path d="M7.5,7.3L13.9,7.3C17.3,7.3,20,10,20,13.4C20,16.8,17.3,19.5,13.9,19.5L5.8,19.5C5.2,19.5,4.8,19,4.8,18.5C4.8,18,5.3,17.5,5.8,17.5L13.9,17.5C16.1,17.5,18,15.7,18,13.4C18,11.1,16.2,9.3,13.9,9.3L7.4,9.3L8.6,10.5C9,10.9,9,11.5,8.6,11.9C8.2,12.3,7.6,12.3,7.2,11.9L4.3,9.1C3.9000001,8.7,3.9000001,8.1,4.3,7.7L7.2,4.8C7.6,4.4000001,8.2,4.4000001,8.6,4.8C9,5.2,9,5.8,8.6,6.2L7.5,7.3Z" fill="#3C82FC" fill-opacity="1"/></g></g></svg>