<svg xmlns="http://www.w3.org/2000/svg" xmlns:xlink="http://www.w3.org/1999/xlink" fill="none" version="1.1" width="24" height="24" viewBox="0 0 24 24"><defs><clipPath id="master_svg0_7_473"><rect x="0" y="0" width="24" height="24" rx="0"/></clipPath></defs><g clip-path="url(#master_svg0_7_473)"><g><path d="M5.599999523162841,5L18.499999523162842,5L18.499999523162842,9.3L17.89999952316284,9.3Q16.799999523162843,6.7,15.499999523162842,6.4Q14.199999523162841,6.2,13.299999523162843,6.3L13.299999523162843,17.4Q13.699999523162841,18.1,14.199999523162841,18.2L15.499999523162842,18.2L15.499999523162842,19L8.399999523162842,19L8.399999523162842,18.2L9.499999523162842,18.2Q10.399999523162842,17.9,10.399999523162842,17.3Q10.399999523162842,16.7,10.399999523162842,6.5Q8.999999523162842,6.3,8.299999523162843,6.5C7.599999523162841,6.7,6.299999523162842,7.7,6.099999523162841,9.3L5.499999523162842,9.3L5.499999523162842,5L5.599999523162841,5Z" fill="#3C82FC" fill-opacity="1"/></g></g></svg>