<svg xmlns="http://www.w3.org/2000/svg" xmlns:xlink="http://www.w3.org/1999/xlink" fill="none" version="1.1" width="32" height="32" viewBox="0 0 32 32"><defs><clipPath id="master_svg0_7_253"><rect x="0" y="0" width="32" height="32" rx="0"/></clipPath></defs><g clip-path="url(#master_svg0_7_253)"><g><path d="M31.160424076271056,28.1459L0.9355320762710571,28.1459C0.7276360762710572,28.1459,0.5517240762710571,28.3218,0.5517240762710571,28.5297L0.5517240762710571,28.8656C0.5517240762710571,29.0735,0.7276360762710572,29.2494,0.9355320762710571,29.2494L13.473224076271057,29.2494C13.569224076271057,29.2494,13.617224076271057,29.3773,13.537224076271057,29.4413L10.610724076271056,31.8081C10.530734076271058,31.8721,10.578724076271056,32,10.674624076271057,32L12.034024076271058,32C12.065924076271058,32,12.081924076271058,31.984,12.097924076271058,31.968L15.424324076271057,29.2654C15.440324076271057,29.2494,15.472224076271058,29.2334,15.488224076271058,29.2334L16.431824076271056,29.2334C16.463724076271056,29.2334,16.479724076271058,29.2494,16.49572407627106,29.2654L19.822124076271056,31.968C19.838124076271058,31.984,19.870024076271058,32,19.886024076271056,32L21.261324076271055,32C21.357324076271055,32,21.405324076271057,31.8721,21.325324076271055,31.8081L18.46272407627106,29.4413C18.382824076271056,29.3773,18.43082407627106,29.2494,18.52672407627106,29.2494L31.048524076271057,29.2494C31.256324076271056,29.2494,31.43232407627106,29.0735,31.43232407627106,28.8656L31.43232407627106,28.4178C31.448324076271057,28.2579,31.320324076271056,28.1459,31.160424076271056,28.1459ZM18.094924076271056,1.66317L16.655624076271057,1.66317C16.591724076271056,1.66317,16.543724076271058,1.61519,16.543724076271058,1.55122L16.543724076271058,0.111944C16.543724076271058,0.047976,16.49572407627106,0,16.431824076271056,0L15.552224076271058,0C15.488224076271058,0,15.440324076271057,0.047976,15.440324076271057,0.111944L15.440324076271057,1.55122C15.440324076271057,1.61519,15.392324076271057,1.66317,15.328324076271057,1.66317L13.889024076271058,1.66317C13.825124076271058,1.66317,13.777124076271058,1.71114,13.777124076271058,1.77511L13.777124076271058,2.65467C13.777124076271058,2.71864,13.825124076271058,2.76662,13.889024076271058,2.76662L18.078924076271058,2.76662C18.142924076271058,2.76662,18.190924076271056,2.71864,18.190924076271056,2.65467L18.190924076271056,1.77511C18.206924076271058,1.71114,18.158924076271056,1.66317,18.094924076271056,1.66317ZM30.344824076271056,4.42978L1.767114076271057,4.42978C1.0954520762710571,4.42978,0.5517240762710571,4.97351,0.5517240762710571,5.64518L0.5517240762710571,25.2834C0.5517240762710571,25.955,1.0954520762710571,26.4988,1.767114076271057,26.4988L30.232924076271058,26.4988C30.904524076271056,26.4988,31.448324076271057,25.955,31.448324076271057,25.2834L31.448324076271057,5.53323C31.448324076271057,4.92554,30.952524076271057,4.42978,30.344824076271056,4.42978Z" fill="#33353A" fill-opacity="1"/></g></g></svg>