<svg xmlns="http://www.w3.org/2000/svg" xmlns:xlink="http://www.w3.org/1999/xlink" fill="none" version="1.1" width="24" height="24" viewBox="0 0 24 24"><defs><clipPath id="master_svg0_7_462"><rect x="0" y="0" width="24" height="24" rx="0"/></clipPath></defs><g clip-path="url(#master_svg0_7_462)"><g><g><path d="M15.000000381469727,4.899999904632568L19.700000381469728,9.599999904632568C20.600000381469727,10.499999904632569,20.600000381469727,11.499999904632569,19.700000381469728,12.399999904632569L15.400000381469727,16.69999990463257C14.500000381469727,17.59999990463257,13.500000381469727,17.59999990463257,12.600000381469727,16.69999990463257L7.900000381469726,11.999999904632569C7.000000381469727,11.099999904632568,7.000000381469727,10.099999904632568,7.900000381469726,9.199999904632568L12.200000381469726,4.900000904632568C13.100000381469727,3.9999999046325683,14.100000381469727,3.9999999046325683,15.000000381469727,4.899999904632568Z" fill="#3C82FC" fill-opacity="1"/></g><g><path d="M13.400000095367432,6L18.30000009536743,11L11.200000095367432,18L8.400000095367432,18L4.900000095367432,14.5L13.400000095367432,6ZM13.400000095367432,4C12.900000095367432,4,12.400000095367432,4.2,12.000000095367431,4.6L3.5000000953674317,13C2.7000000953674315,13.8,2.7000000953674315,15,3.5000000953674317,15.8L7.600000095367432,20L12.100000095367431,20L19.80000009536743,12.3C20.60000009536743,11.5,20.60000009536743,10.3,19.80000009536743,9.5L14.900000095367432,4.6C14.400000095367432,4.2,13.900000095367432,4,13.400000095367432,4Z" fill="#3C82FC" fill-opacity="1"/></g><g><path d="M9.100000381469727,18L20.100000381469727,18C20.800000381469726,18,21.100000381469727,18.299999,21.100000381469727,19C21.100000381469727,19.7,20.800000381469726,20,20.100000381469727,20L9.100000381469727,20C8.400000381469727,20,8.100000381469727,19.7,8.100000381469727,19C8.100000381469727,18.299999,8.399999381469726,18,9.100000381469727,18Z" fill="#3C82FC" fill-opacity="1"/></g></g></g></svg>