<svg xmlns="http://www.w3.org/2000/svg" xmlns:xlink="http://www.w3.org/1999/xlink" fill="none" version="1.1" width="24" height="24" viewBox="0 0 24 24"><defs><clipPath id="master_svg0_7_475"><rect x="0" y="0" width="24" height="24" rx="0"/></clipPath></defs><g clip-path="url(#master_svg0_7_475)"><g><path d="M19.8,6.3L4.2,6.3C3.8,6.3,3.5,6.6,3.5,7C3.5,7.4,3.8,7.7,4.2,7.7L5.9,7.7L5.9,16.8C5.9,18.6,7.3,20,9.1,20L14.8,20C16.6,20,18,18.6,18,16.8L18,7.7L19.7,7.7C20.1,7.7,20.4,7.4,20.4,7C20.5,6.6,20.2,6.3,19.8,6.3ZM11.1,15.3C11.1,15.7,10.8,16,10.4,16C10,16,9.7,15.7,9.7,15.3L9.7,10.7C9.7,10.3,10,10,10.4,10C10.8,10,11.1,10.3,11.1,10.7L11.1,15.3ZM14.4,15.3C14.4,15.7,14.1,16,13.7,16C13.3,16,13,15.7,13,15.3L13,10.7C13,10.3,13.3,10,13.7,10C14.1,10,14.4,10.3,14.4,10.7L14.4,15.3ZM9.2,5.5L14.9,5.5C15.3,5.5,15.6,5.2,15.6,4.8C15.6,4.400001,15.2,4,14.8,4L9.2,4C8.8,4,8.4,4.3,8.4,4.7C8.4,5.1,8.8,5.5,9.2,5.5Z" fill="#3C82FC" fill-opacity="1"/></g></g></svg>