<svg xmlns="http://www.w3.org/2000/svg" xmlns:xlink="http://www.w3.org/1999/xlink" fill="none" version="1.1" width="24" height="24" viewBox="0 0 24 24"><defs><clipPath id="master_svg0_5_154"><rect x="0" y="0" width="24" height="24" rx="0"/></clipPath></defs><g clip-path="url(#master_svg0_5_154)"><g><path d="M12.000002791748047,4.8886227917480465C11.172442791748047,4.8886227917480465,10.381042791748047,5.023842791748047,9.623822791748047,5.294172791748046C8.876442791748048,5.557342791748047,8.179382791748047,5.9459827917480474,7.562592791748047,6.443382791748046L17.556142791748044,16.438642791748045C18.053742791748046,15.820642791748046,18.437242791748048,15.135042791748047,18.706842791748045,14.376842791748047C18.977042791748048,13.621242791748047,19.11194279174805,12.826862791748047,19.111242791748047,12.001152791748046C19.111242791748047,11.037922791748047,18.923542791748048,10.115582791748047,18.54664279174805,9.239242791748048C18.170042791748045,8.360362791748047,17.665142791748046,7.604762791748047,17.031742791748044,6.969792791748047C16.398042791748047,6.337132791748047,15.641542791748046,5.830192791748047,14.763442791748046,5.455932791748047C13.884442791748047,5.079342791748047,12.963932791748046,4.891052791748047,12.001162791748047,4.891052791748047L12.000002791748047,4.8886227917480465ZM16.43834279174805,17.556642791748047L6.444892791748047,7.561312791748047C5.950472791748046,8.184122791748047,5.568322791748047,8.872282791748047,5.296602791748047,9.630312791748047C5.024312791748047,10.388462791748047,4.888742791748047,11.177892791748047,4.888742791748047,12.001162791748047C4.888742791748047,12.962082791748047,5.076802791748047,13.884442791748047,5.453612791748046,14.763142791748047C5.829962791748047,15.639642791748047,6.334812791748047,16.397642791748048,6.968512791748047,17.030242791748044C7.602212791748047,17.665142791748046,8.358512791748048,18.169842791748046,9.237282791748047,18.546342791748046C10.115812791748047,18.92294279174805,11.036062791748048,19.111342791748047,11.999072791748047,19.111342791748047C12.826392791748047,19.111342791748047,13.617942791748046,18.976142791748046,14.375042791748047,18.705842791748047C15.131842791748047,18.437842791748047,15.819342791748047,18.05394279174805,16.436142791748047,17.554042791748046L16.43834279174805,17.556642791748047ZM12.000002791748047,3.309642791748047C13.181192791748046,3.309642791748047,14.308142791748047,3.539067791748047,15.379742791748047,3.9976877917480467C16.451242791748047,4.453992791748047,17.374842791748048,5.072042791748046,18.150942791748047,5.849542791748046C18.926842791748047,6.624492791748047,19.543942791748048,7.5491427917480465,20.00254279174805,8.621192791748047C20.461742791748048,9.693002791748047,20.690342791748048,10.818112791748046,20.690342791748048,11.998842791748046C20.690342791748048,13.181892791748046,20.461742791748048,14.306842791748046,20.00254279174805,15.378842791748047C19.543942791748048,16.450842791748045,18.926842791748047,17.375542791748046,18.150942791748047,18.15044279174805C17.374842791748048,18.927942791748045,16.451042791748048,19.543542791748045,15.379742791748047,20.002342791748045C14.308142791748047,20.460942791748046,13.181192791748046,20.690342791748048,12.000002791748047,20.690342791748048C10.818802791748046,20.690342791748048,9.692302791748046,20.460942791748046,8.620952791748046,20.002342791748045C7.548802791748047,19.543442791748046,6.625422791748047,18.927942791748045,5.849082791748047,18.15044279174805C5.073672791748047,17.375542791748046,4.456542791748047,16.450842791748045,3.9976877917480467,15.378842791748047C3.538836791748047,14.307042791748048,3.309642791748047,13.181892791748046,3.309642791748047,11.998842791748046C3.309642791748047,10.818112791748046,3.5387207917480468,9.693002791748047,3.9976877917480467,8.621192791748047C4.456542791748047,7.5491427917480465,5.073672791748047,6.624492791748047,5.849082791748047,5.849542791748046C6.625422791748047,5.072042791748046,7.548912791748047,4.453992791748047,8.620952791748046,3.9976877917480467C9.692302791748046,3.539067791748047,10.818802791748046,3.309642791748047,12.000002791748047,3.309642791748047Z" fill="#D81E06" fill-opacity="1"/></g></g></svg>