<svg xmlns="http://www.w3.org/2000/svg" xmlns:xlink="http://www.w3.org/1999/xlink" fill="none" version="1.1" width="12" height="20" viewBox="0 0 12 20"><defs><clipPath id="master_svg0_5_413"><rect x="0" y="0" width="12" height="20" rx="0"/></clipPath><linearGradient x1="0.007895734161138535" y1="0.4987921118736267" x2="1.015800952911377" y2="0.4987921118736267" id="master_svg1_5_881"><stop offset="0%" stop-color="#1EEA84" stop-opacity="1"/><stop offset="100%" stop-color="#00FF00" stop-opacity="1"/></linearGradient></defs><g clip-path="url(#master_svg0_5_413)"><g><path d="M7.100000023841858,11.900000095367432L9.200000023841858,16.500000095367433C9.300000023841857,16.80000009536743,9.200000023841858,17.10000009536743,9.000000023841858,17.200000095367432L7.100000023841858,18.10000009536743C6.800000023841858,18.200000095367432,6.500000023841858,18.10000009536743,6.400000023841858,17.90000009536743L4.2000000238418576,13.200000095367432L1.5000000238418578,15.900000095367432C1.400000023841858,16.000000095367433,1.0000000238418578,16.000000095367433,0.8000000238418579,15.800000095367432C0.7000000238418579,15.700000095367432,0.6000000238418579,15.600000095367431,0.6000000238418579,15.400000095367432L0.6000000238418579,2.4000000953674316C0.6000000238418579,2.100000095367432,0.8000000238418579,1.9000000953674316,1.100000023841858,1.9000000953674316C1.200000023841858,1.9000000953674316,1.400000023841858,1.9000000953674316,1.400000023841858,1.9999999953674317L11.000000023841858,10.700000095367432C11.200000023841858,10.900000095367432,11.200000023841858,11.200000095367432,11.000000023841858,11.400000095367432C10.900000023841859,11.500000095367431,10.800000023841857,11.600000095367431,10.700000023841858,11.600000095367431L7.100000023841858,11.900000095367432Z" fill="url(#master_svg1_5_881)" fill-opacity="1"/><path d="M10.731100023841858,11.973700095367432L7.131140023841858,12.273700095367431L7.100000023841858,11.900000095367432L7.441130023841858,11.744260095367432L9.549430023841857,16.36250009536743L9.555760023841858,16.381400095367432Q9.666980023841857,16.715100095367433,9.571680023841857,17.03280009536743Q9.465570023841858,17.38650009536743,9.167710023841858,17.535400095367432L7.240070023841858,18.448600095367432L7.218590023841858,18.455800095367433Q6.884910023841858,18.567000095367433,6.567240023841858,18.47170009536743Q6.213520023841858,18.36560009536743,6.064590023841858,18.06770009536743L6.062420023841858,18.06340009536743L3.860370023841858,13.359000095367431L4.2000000238418576,13.200000095367432L4.465160023841857,13.465200095367432L1.7651600238418579,16.16520009536743Q1.557637023841858,16.37270009536743,1.1535490238418578,16.33600009536743Q0.770838023841858,16.30120009536743,0.5348344238418579,16.06520009536743L0.534831723841858,16.06520009536743Q0.2250000238418579,15.755300095367431,0.2250000238418579,15.400000095367432L0.2250000238418579,2.4000000953674316Q0.2250000238418579,2.019670095367432,0.4723350238418579,1.7723350953674317Q0.7196700238418579,1.5250000953674316,1.100000023841858,1.5250000953674316Q1.775000023841858,1.5250000953674316,1.775000023841858,1.9999999953674317L1.400000023841858,1.9999999953674317L1.6518200238418579,1.7221300953674317L11.258600023841858,10.428320095367432L11.265200023841858,10.434830095367431Q11.525000023841859,10.694670095367432,11.525000023841859,11.050000095367432Q11.525000023841859,11.405330095367432,11.265200023841858,11.665160095367431Q10.955300023841858,11.975000095367431,10.700000023841858,11.975000095367431L10.700000023841858,11.600000095367431L10.731100023841858,11.973700095367432ZM10.668900023841857,11.226290095367432L10.684400023841858,11.225000095367431L10.700000023841858,11.225000095367431Q10.657300023841858,11.225000095367431,10.624700023841857,11.239250095367431L10.625000023841858,11.237500095367432Q10.653700023841857,11.215990095367431,10.734800023841858,11.134840095367432Q10.819700023841857,11.050000095367432,10.734800023841858,10.965160095367432L11.000000023841858,10.700000095367432L10.748200023841857,10.977870095367432L1.025000023841858,2.1662380953674316L1.025000023841858,1.9999999953674317Q1.025000023841858,2.2424260953674318,1.213957023841858,2.280218095367432Q1.1878680238418577,2.2750000953674316,1.100000023841858,2.2750000953674316Q1.030330023841858,2.2750000953674316,1.002665023841858,2.3026650953674315Q0.9750000238418579,2.3303300953674317,0.9750000238418579,2.4000000953674316L0.9750000238418579,15.400000095367432Q0.9750000238418579,15.444700095367432,1.065163023841858,15.534800095367432L1.065165023841858,15.534800095367432Q1.1091620238418578,15.578800095367432,1.2214510238418579,15.589000095367432Q1.270412023841858,15.593500095367432,1.303018023841858,15.587000095367431Q1.277620023841858,15.592000095367432,1.234835023841858,15.634800095367432L4.312940023841858,12.556700095367432L6.739630023841858,17.741000095367433L6.400000023841858,17.90000009536743L6.735410023841858,17.73230009536743Q6.775680023841858,17.812800095367432,6.981410023841858,17.744200095367432L7.100000023841858,18.10000009536743L6.939470023841858,17.761100095367432L8.832290023841859,16.864600095367432Q8.912820023841858,16.824300095367434,8.844240023841857,16.618600095367434L9.200000023841858,16.500000095367433L8.858870023841858,16.65570009536743L6.537390023841858,11.570580095367431L10.668900023841857,11.226290095367432Z" fill="#484642" fill-opacity="1"/></g></g></svg>