<svg xmlns="http://www.w3.org/2000/svg" xmlns:xlink="http://www.w3.org/1999/xlink" fill="none" version="1.1" width="40" height="40" viewBox="0 0 40 40"><defs><clipPath id="master_svg0_5_321"><rect x="0" y="0" width="40" height="40" rx="0"/></clipPath></defs><g clip-path="url(#master_svg0_5_321)"><g><path d="M34.299953259277345,0.900000023841858L39.299953259277345,5.900000023841858C39.59995325927734,6.2000000238418576,39.59995325927734,6.800000023841858,39.299953259277345,7.100000023841858L32.399953259277346,14.000000023841858L30.500003259277342,14.600000023841858L29.300003259277343,15.800000023841857C29.000003259277342,16.100000023841858,28.400003259277344,16.100000023841858,28.100003259277344,15.800000023841857L24.400003259277344,12.100000023841858C24.100003259277344,11.800000023841857,24.100003259277344,11.200000023841858,24.400003259277344,10.900000023841859L25.600003259277344,9.700000023841858L26.200003259277345,7.800000023841858L32.99995325927735,0.900000023841858C33.399953259277346,0.5000000238418579,33.899953259277346,0.5000000238418579,34.299953259277345,0.900000023841858ZM34.899953259277346,4.000000023841858L29.300003259277343,9.600000023841858L30.500003259277342,10.800000023841857L36.09995325927734,5.2000000238418576L34.899953259277346,4.000000023841858ZM24.000003259277342,13.600000023841858L26.500003259277342,16.100000023841858L25.300003259277343,17.300000023841857L21.599998469277345,16.100000023841858Q21.499999959277343,16.100000023841858,24.000003259277342,13.600000023841858Z" fill="#333333" fill-opacity="1"/><path d="M21.599998469277345,16.600000023841858Q21.202668259277345,16.600000023841858,21.110092259277344,16.214200023841858Q21.072385259277343,16.05710002384186,21.133418259277345,15.904500023841859Q21.160046259277344,15.838000023841857,21.209857259277342,15.768800023841857Q21.252257259277343,15.709900023841858,21.337142259277343,15.613400023841859Q21.481791259277344,15.449100023841858,21.789306259277343,15.128700023841859Q22.392794259277345,14.500100023841858,23.646443259277344,13.246400023841858L24.000003259277342,12.892900023841857L27.207103259277343,16.100000023841858L25.437023259277343,17.870100023841857L21.445746259277342,16.575600023841858L21.599998469277345,16.100000023841858L21.599998469277345,16.600000023841858ZM21.679052659277342,15.600000023841858L25.454253259277344,16.824400023841857L25.300003259277343,17.300000023841857L24.946443259277345,16.946400023841857L26.146443259277344,15.746400023841858L26.500003259277342,16.100000023841858L26.146443259277344,16.453600023841858L23.646443259277344,13.953600023841858L24.000003259277342,13.600000023841858L24.353553259277344,13.953600023841858Q23.107093259277345,15.200000023841858,22.510693259277343,15.821300023841857Q22.218198259277344,16.125900023841858,22.087855259277344,16.274100023841857Q22.035240259277344,16.333900023841856,22.021390259277343,16.353100023841858Q22.043076259277345,16.323000023841857,22.061892259277343,16.275900023841857Q22.119018259277343,16.133100023841855,22.082483259277343,15.980900023841858Q21.991079259277345,15.600000023841858,21.599998469277345,15.600000023841858L21.679052659277342,15.600000023841858ZM35.746453259277345,5.553550023841858L34.54645325927734,4.3535500238418585L34.899953259277346,4.000000023841858L35.253553259277346,4.3535500238418585L29.653553259277345,9.953550023841858L29.300003259277343,9.600000023841858L29.653553259277345,9.246450023841858L30.853553259277344,10.446450023841859L30.500003259277342,10.800000023841857L30.146443259277344,10.446450023841859L35.746453259277345,4.846450023841858L36.09995325927734,5.2000000238418576L35.746453259277345,5.553550023841858ZM36.80715325927734,5.2000000238418576L30.500003259277342,11.507100023841858L28.592893259277343,9.600000023841858L34.899953259277346,3.2928900238418577L36.45355325927734,4.846450023841858L36.80715325927734,5.2000000238418576ZM32.646453259277344,0.5464459238418579Q33.09285325927735,0.10000002384185791,33.649953259277346,0.10000002384185791Q34.20715325927735,0.10000002384185791,34.653553259277345,0.5464476238418579L39.653553259277345,5.5464500238418575Q40.02495325927734,5.917890023841858,40.02495325927734,6.500000023841858Q40.02495325927734,7.0821100238418575,39.653553259277345,7.453550023841858L32.66715325927734,14.440000023841858L30.650563259277344,15.076800023841859L30.500003259277342,14.600000023841858L30.853553259277344,14.953600023841858L29.653553259277345,16.153600023841857Q29.282103259277342,16.52500002384186,28.700003259277345,16.52500002384186Q28.117893259277345,16.52500002384186,27.746443259277342,16.153600023841857L24.046443259277343,12.453600023841858Q23.675003259277343,12.082100023841859,23.675003259277343,11.500000023841858Q23.675003259277343,10.917900023841858,24.046443259277343,10.546450023841858L25.246443259277342,9.346450023841857L25.600003259277344,9.700000023841858L25.123213259277343,9.549430023841857L25.759433259277344,7.534720023841858L32.64385325927734,0.5490366238418579L32.646453259277344,0.5464459238418579ZM33.35615325927734,1.2509630238418579L26.556123259277342,8.150960023841858L26.200003259277345,7.800000023841858L26.676793259277343,7.950570023841858L26.039983259277342,9.967120023841858L24.753553259277343,11.253600023841859Q24.675003259277343,11.332100023841859,24.675003259277343,11.500000023841858Q24.675003259277343,11.667900023841858,24.753553259277343,11.746400023841858L28.453553259277342,15.446400023841857Q28.532103259277342,15.525000023841859,28.700003259277345,15.525000023841859Q28.867893259277345,15.525000023841859,28.946443259277345,15.446400023841857L30.232883259277344,14.160000023841858L32.249453259277345,13.523200023841857L32.399953259277346,14.000000023841858L32.04645325927734,13.646400023841858L38.94645325927735,6.746450023841858Q39.02495325927734,6.667900023841858,39.02495325927734,6.500000023841858Q39.02495325927734,6.3321100238418575,38.94645325927735,6.253550023841858L33.94645325927735,1.2535520238418578Q33.792853259277344,1.100000023841858,33.649953259277346,1.100000023841858Q33.507153259277345,1.100000023841858,33.35355325927735,1.2535540238418579L33.35615325927734,1.2509630238418579Z" fill="#FFFFFF" fill-opacity="1"/></g></g></svg>