<svg xmlns="http://www.w3.org/2000/svg" xmlns:xlink="http://www.w3.org/1999/xlink" fill="none" version="1.1" width="40" height="40" viewBox="0 0 40 40"><defs><clipPath id="master_svg0_5_479"><rect x="0" y="0" width="40" height="40" rx="0"/></clipPath></defs><g clip-path="url(#master_svg0_5_479)"><g><path d="M39.00000076293945,4.8L37.400000762939456,6.4L33.70000076293945,2.7L35.20000076293945,1Q35.70000076293945,0.5,36.300000762939455,1L39.00000076293945,3.6C39.00000076293945,3.7,39.50000076293945,4.2,39.00000076293945,4.8ZM23.200000762939453,16.8L27.700000762939453,16L23.999999762939453,12.3L23.200000762939453,16.8ZM24.500000762939454,11.6L28.200000762939453,15.3L36.800000762939455,6.7L33.10000076293945,3L24.500000762939454,11.6Z" fill="#333333" fill-opacity="1"/><path d="M33.45360076293945,3.35355L24.853550762939452,11.9536L24.500000762939454,11.6L24.853550762939452,11.2464L28.55355076293945,14.9464L28.200000762939453,15.3L27.846450762939455,14.9464L36.446400762939454,6.34645L36.800000762939455,6.7L36.446400762939454,7.05355L32.74645076293945,3.35355L33.10000076293945,3L33.45360076293945,3.35355ZM33.10000076293945,2.29289L37.50710076293945,6.7L28.200000762939453,16.0071L23.792892762939452,11.6L32.74645076293945,2.6464499999999997L33.10000076293945,2.29289ZM24.492280762939455,12.3875L23.69228176293945,16.8875L23.200000762939453,16.8L23.112484062939455,16.3077L27.612480762939455,15.5077L27.700000762939453,16L27.346450762939455,16.3536L23.646446762939455,12.6536L23.999999762939453,12.3L24.492280762939455,12.3875ZM23.675547762939452,11.2684L28.731560762939452,16.3245L22.582357762939452,17.4176L23.507718762939454,12.2125L23.675547762939452,11.2684ZM39.50000076293945,3.6Q39.50000076293945,3.49888,39.46400076293945,3.42477Q39.46620076293945,3.42934,39.48590076293945,3.46425Q40.00220076293945,4.37843,39.384100762939454,5.12009L39.369600762939456,5.13752L37.400000762939456,7.10711L33.014300762939456,2.72141L34.83540076293946,0.6574844L34.84640076293945,0.646447Q35.66930076293946,-0.17642400000000003,36.62010076293945,0.61589L36.633900762939454,0.627385L39.50000076293945,3.38735L39.50000076293945,3.6ZM38.50000076293945,3.6L39.00000076293945,3.6L38.653200762939456,3.96016L35.95320076293945,1.36016L36.300000762939455,1L35.97990076293945,1.38411Q35.73070076293945,1.176424,35.55360076293945,1.353553L35.20000076293945,1L35.57490076293945,1.330811L34.07490076293945,3.03081L33.70000076293945,2.7L34.05360076293945,2.34645L37.753600762939456,6.04645L37.400000762939456,6.4L37.046400762939456,6.04645L38.64640076293945,4.4464500000000005L39.00000076293945,4.8L38.615900762939454,4.47991Q38.79180076293945,4.26879,38.61520076293945,3.95597Q38.50000076293945,3.75203,38.50000076293945,3.6Z" fill="#FFFFFF" fill-opacity="1"/></g></g></svg>