<svg xmlns="http://www.w3.org/2000/svg" xmlns:xlink="http://www.w3.org/1999/xlink" fill="none" version="1.1" width="40" height="40" viewBox="0 0 40 40"><defs><clipPath id="master_svg0_5_119"><rect x="0" y="0" width="40" height="40" rx="0"/></clipPath></defs><g clip-path="url(#master_svg0_5_119)"><g><path d="M30.811610762939452,13.488389618530274L26.111610762939453,8.788388618530274L26.111610762939453,8.788385618530274Q25.875000762939454,8.551775618530273,25.875000762939454,8.399999618530273L26.000000762939454,8.399999618530273L26.088390762939454,8.488387918530274L23.288389162939453,11.288389618530273L23.200000762939453,11.199999618530274L23.28838906293945,11.111609618530274L26.788390762939454,14.611609618530274L26.700000762939453,14.699999618530274L26.700000762939453,14.574999618530274L27.400000762939452,14.574999618530274L29.500000762939454,14.574999618530274L29.500000762939454,14.699999618530274L29.41494076293945,14.608399618530274L30.814940762939454,13.308399618530274L30.900000762939452,13.399999618530273L30.811610762939452,13.488389618530274ZM31.080110762939455,13.403329618530273L29.549090762939453,14.824999618530274L27.400000762939452,14.824999618530274L26.648220762939452,14.824999618530274L23.023223762939452,11.199999618530274L26.125000762939454,8.098222618530274L26.125000762939454,8.399999618530273Q26.125000762939454,8.448222418530273,26.288390762939454,8.611608618530273L26.288390762939454,8.611611618530274L30.988390762939453,13.311609618530273L31.080110762939455,13.403329618530273Z" fill="#FFFFFF" fill-opacity="1"/></g><g><path d="M38.39999694824219,14.699999690055847L32.39999694824219,14.699999690055847L33.69999694824219,13.399999690055846L37.999996948242185,9.099999690055848L38.099996948242186,8.999999690055848C38.89999694824219,8.199999690055847,38.89999694824219,6.999999690055847,38.099996948242186,6.199999690055847L33.19999694824219,1.2999996900558473C32.69999694824219,0.8999996900558471,32.19999694824219,0.6999996900558472,31.699996948242188,0.6999996900558472C31.199996948242188,0.6999996900558472,30.699996948242188,0.8999996900558471,30.29999694824219,1.2999996900558473L21.79999694824219,9.699999690055847C20.99999794824219,10.499999690055848,20.99999794824219,11.699999690055847,21.79999694824219,12.499999690055848L25.899996948242187,16.699999690055847L27.399996948242187,16.699999690055847L30.399996948242187,16.699999690055847L38.39999694824219,16.699999690055847C39.099996948242186,16.699999690055847,39.39999694824219,16.399999690055846,39.39999694824219,15.699999690055847C39.39999694824219,14.999999690055848,39.099996948242186,14.699999690055847,38.39999694824219,14.699999690055847Z" fill="#333333" fill-opacity="1"/><path d="M39.27499694824219,15.699999690055847Q39.27499694824219,15.226799690055847,39.074096948242186,15.025899690055848Q38.87319694824219,14.824999690055847,38.39999694824219,14.824999690055847L32.09819694824219,14.824999690055847L33.61159694824219,13.311599690055846L37.91159694824219,9.011609690055847L38.011596948242186,8.911609690055847Q38.57499694824219,8.348219690055847,38.57499694824219,7.5999996900558475Q38.57499694824219,6.851779690055847,38.011596948242186,6.288389690055848L33.11159694824219,1.3883876900558472L33.19999694824219,1.2999996900558473L33.12189694824219,1.397608690055847Q32.40619694824219,0.8249996900558472,31.699996948242188,0.8249996900558472Q30.951776948242188,0.8249996900558472,30.388386948242186,1.3883876900558472L21.88786094824219,9.788909690055847Q21.32499794824219,10.351779690055848,21.32499794824219,11.099999690055848Q21.32499794824219,11.848199690055846,21.88838594824219,12.411599690055848L25.98944694824219,16.612699690055848L25.899996948242187,16.699999690055847L25.899996948242187,16.574999690055847L27.399996948242187,16.574999690055847L30.399996948242187,16.574999690055847L38.39999694824219,16.574999690055847Q38.87319694824219,16.574999690055847,39.074096948242186,16.374099690055846Q39.27499694824219,16.173199690055846,39.27499694824219,15.699999690055847L39.27499694824219,15.699999690055847ZM39.52499694824219,15.699999690055847Q39.52499694824219,16.824999690055847,38.39999694824219,16.824999690055847L30.399996948242187,16.824999690055847L27.399996948242187,16.824999690055847L25.847336948242187,16.824999690055847L21.711608948242187,12.588399690055848Q21.07499794824219,11.951799690055847,21.07499794824219,11.099999690055848Q21.07499794824219,10.248219690055848,21.712133948242187,9.611089690055847L30.211606948242185,1.2116116900558471Q30.84821694824219,0.5749996900558472,31.699996948242188,0.5749996900558472Q32.493796948242185,0.5749996900558472,33.27809694824219,1.2023906900558472L33.28349694824219,1.2067156900558471L38.188396948242186,6.111609690055847Q38.82499694824219,6.748219690055847,38.82499694824219,7.5999996900558475Q38.82499694824219,8.451779690055847,38.188396948242186,9.088389690055847L38.08839694824219,9.188389690055848L33.78839694824219,13.488399690055846L32.48839694824218,14.788399690055847L32.39999694824219,14.699999690055847L32.39999694824219,14.574999690055847L38.39999694824219,14.574999690055847Q39.52499694824219,14.574999690055847,39.52499694824219,15.699999690055847L39.52499694824219,15.699999690055847Z" fill="#FFFFFF" fill-opacity="1"/></g><g><path d="M27.599999618530273,14.699999618530274L26.899999618530273,14.699999618530274L23.399999618530273,11.199999618530274L26.199999618530274,8.399999618530273C26.299999618530272,8.499999618530273,26.299999618530272,8.599999618530273,26.399999618530273,8.699999618530274L31.099999618530273,13.399999618530273L29.699999618530274,14.699999618530274L27.599999618530273,14.699999618530274Z" fill="#FFFFFF" fill-opacity="1"/></g></g></svg>